<svg xmlns="http://www.w3.org/2000/svg" xmlns:xlink="http://www.w3.org/1999/xlink" version="1.1" width="256" height="256" viewBox="0 0 256 256" xml:space="preserve">
<g style="stroke: none; stroke-width: 0; stroke-dasharray: none; stroke-linecap: butt; stroke-linejoin: miter; stroke-miterlimit: 10; fill: none; fill-rule: nonzero; opacity: 1;" transform="translate(1.4065934065934016 1.4065934065934016) scale(2.81 2.81)">
	<path d="M 57.936 6.559 C 76.603 7.948 79.465 30 66.486 51.244 C 58.49 66.288 39.861 84.227 27.86 88.322 c 0.284 -1.984 -0.354 -4.527 -1.605 -7.494 c -1.132 -2.684 -2.766 -5.716 -4.673 -8.993 C 10.289 52.432 -10.586 24.411 6.432 8.724 C 17.784 -1.839 32.366 7.795 38.224 18.961 C 39.442 19.056 45.028 5.598 57.936 6.559 z" style="stroke: none; stroke-width: 1; stroke-dasharray: none; stroke-linecap: butt; stroke-linejoin: miter; stroke-miterlimit: 10; fill: rgb(242,183,211); fill-rule: nonzero; opacity: 1;" transform=" matrix(1 0 0 1 0 0) " stroke-linecap="round"/>
	<path d="M 76.608 4.913 c -10.911 -3.496 -18.81 1.196 -25.02 9.319 C 46.579 7.111 38.847 1.411 29.873 1.687 C 18.89 2.312 11.124 12.505 11.097 22.427 c -0.135 9.685 4.155 18.354 8.68 26.489 c 4.55 7.97 9.844 15.359 14.899 22.919 c -4.13 -8.112 -8.802 -15.945 -12.683 -24.08 c -3.662 -7.836 -7.313 -16.468 -6.809 -25.127 c 0.39 -7.897 6.768 -15.628 14.857 -15.891 c 3.921 -0.1 7.802 1.714 10.888 4.1 c 3.296 2.456 6.01 5.79 7.954 9.4 c 0.419 0.818 1.241 1.4 2.223 1.464 c 1.753 0.168 2.959 -1.377 3.843 -2.629 c 3.74 -5.475 9.375 -10.716 16.444 -9.679 c 7.549 0.368 12.994 6.812 13.44 14.232 c 1.271 16.137 -8.79 31.36 -18.57 43.496 c -7.226 8.277 -15.19 16.492 -25.307 21.2 c 10.762 -3.545 19.615 -11.302 27.501 -19.22 c 11.462 -12.487 22.541 -28.154 21.473 -45.977 C 89.591 15.241 84.518 7.129 76.608 4.913 z" style="stroke: none; stroke-width: 1; stroke-dasharray: none; stroke-linecap: butt; stroke-linejoin: miter; stroke-miterlimit: 10; fill: rgb(237,98,164); fill-rule: nonzero; opacity: 1;" transform=" matrix(1 0 0 1 0 0) " stroke-linecap="round"/>
</g>
</svg>